<?xml version="1.0" encoding="utf-8"?>

<svg xmlns="http://www.w3.org/2000/svg" xmlns:xlink="http://www.w3.org/1999/xlink" x="0px" y="0px"
	 width="385.51px" height="85.04px" viewBox="0 0 385.51 85.04" enable-background="new 0 0 385.51 85.04" xml:space="preserve">
<g>
	<path fill="#020202" d="M83.625,43.566v38.869c0,1.436-1.168,2.603-2.614,2.603H70.945c-1.444,0-2.612-1.167-2.612-2.603V43.484
		 M68.333,38.201v-6.228c0-1.414,1.168-2.556,2.612-2.556h10.066c1.446,0,2.614,1.142,2.614,2.556v6.228"/>
	<g>
		<path fill="#020202" d="M60.267,85.037h-8.806c-1.445,0-2.614-1.167-2.614-2.604v-25.92L37.988,75.667
			c-1.211,2.255-3.264,3.524-5.744,3.524h-1.412c-2.509,0-4.573-1.271-5.814-3.578L14.073,56.441v25.992
			c0,1.437-1.17,2.604-2.613,2.604H2.614C1.169,85.037,0,83.87,0,82.434V32.019c0-1.437,1.169-2.601,2.614-2.601h7.588
			c0.502,0,0.938,0.015,1.313,0.041c0.562,0.047,1.085,0.159,1.583,0.339c0.628,0.239,1.167,0.578,1.633,1.02
			c0.419,0.4,0.78,0.89,1.118,1.507l15.646,27.221l15.593-27.261c0.304-0.563,0.66-1.051,1.057-1.446
			c0.495-0.493,1.061-0.854,1.687-1.071c0.516-0.17,1.02-0.27,1.541-0.309c0.404-0.027,0.842-0.042,1.345-0.042h7.55
			c1.445,0,2.613,1.164,2.613,2.601v50.417C62.879,83.87,61.712,85.037,60.267,85.037z"/>
	</g>
	<g>
		<path fill="#020202" d="M133.173,85.037h-5.146c-1.191,0-2.247-0.227-3.142-0.674c-0.865-0.448-1.653-1.105-2.377-1.965
			L102.5,56.209v26.225c0,1.437-1.167,2.604-2.613,2.604h-8.845c-1.445,0-2.613-1.167-2.613-2.604V32.019
			c0-1.437,1.168-2.601,2.613-2.601h5.26c0.574,0,1.064,0.026,1.472,0.083c0.469,0.044,1.023,0.198,1.549,0.438
			c0.515,0.244,0.976,0.562,1.393,0.955c0.266,0.248,0.582,0.58,0.938,1l20.1,26.372V32.019c0-1.437,1.169-2.601,2.614-2.601h8.807
			c1.446,0,2.614,1.164,2.614,2.601v50.415C135.786,83.87,134.619,85.037,133.173,85.037z"/>
	</g>
	<path fill="#020202" d="M227.273,81.076L209.27,51.877c-0.725-1.057-1.508-2.001-2.341-2.816c1.202-0.645,2.329-1.36,3.376-2.144
		c2.219-1.651,4.128-3.585,5.671-5.747c1.542-2.161,2.731-4.575,3.534-7.173c0.795-2.581,1.203-5.336,1.203-8.188
		c0-3.717-0.631-7.191-1.869-10.332c-1.282-3.235-3.332-6.051-6.094-8.371c-2.697-2.264-6.172-4.041-10.322-5.282
		c-4.057-1.208-8.938-1.823-14.519-1.823h-24.15c-1.444,0-2.614,1.166-2.614,2.604v79.833c0,1.438,1.17,2.603,2.614,2.603h15.94
		c1.446,0,2.614-1.164,2.614-2.603V54.318h2.759c1.292,0,1.796,0.22,1.931,0.291c0.235,0.125,0.601,0.422,1.007,1.063l14.666,24.984
		c1.847,2.866,4.63,4.382,8.06,4.382h14.311c0.945,0,1.818-0.51,2.28-1.331C227.786,82.885,227.768,81.879,227.273,81.076z
		 M199.301,31.47c-0.46,1.301-1.137,2.387-2.072,3.319c-0.93,0.931-2.165,1.674-3.669,2.22c-1.578,0.573-3.519,0.865-5.773,0.865
		h-5.477V17.349h5.596c4.315,0,7.474,0.844,9.388,2.51c1.84,1.604,2.733,3.904,2.733,7.031
		C200.028,28.55,199.782,30.093,199.301,31.47z"/>
	<g>
		<path fill="#020202" d="M262.479,85.039h-29.227c-1.443,0-2.611-1.164-2.611-2.604V2.603c0-1.437,1.168-2.603,2.611-2.603h29.227
			c6.152,0,11.851,1.058,16.936,3.142c5.106,2.096,9.538,5.07,13.177,8.842c3.629,3.76,6.468,8.306,8.437,13.507
			c1.958,5.166,2.948,10.875,2.948,16.97c0,6.136-0.989,11.873-2.944,17.056c-1.97,5.221-4.809,9.776-8.437,13.543
			c-3.646,3.771-8.081,6.746-13.181,8.84C274.326,83.98,268.631,85.039,262.479,85.039z M251.809,67.271h10.67
			c3.149,0,6.006-0.553,8.486-1.642c2.426-1.069,4.508-2.646,6.19-4.682c1.727-2.089,3.078-4.694,4.021-7.744
			c0.962-3.126,1.452-6.744,1.452-10.743c0-3.962-0.489-7.548-1.451-10.659c-0.943-3.023-2.296-5.621-4.022-7.709
			c-1.686-2.039-3.772-3.625-6.208-4.717c-2.465-1.105-5.315-1.667-8.469-1.667h-10.67V67.271L251.809,67.271z"/>
	</g>
	<path fill="#020202" d="M155.822,43.566v38.869c0,1.436-1.168,2.603-2.613,2.603h-10.066c-1.444,0-2.614-1.167-2.614-2.603V43.484
		 M140.528,38.201v-6.228c0-1.414,1.17-2.556,2.614-2.556h10.066c1.445,0,2.613,1.142,2.613,2.556v6.228"/>
	<path fill="#020202" d="M385.512,4.888h-0.002c0-1.488-1.216-2.697-2.703-2.697h-17.38c-0.59,0-1.137,0.189-1.581,0.51
		l-0.004-0.001l-0.017,0.019c-0.224,0.161-0.412,0.354-0.575,0.572l-18.039,17.959L327.144,3.252
		c-0.146-0.192-0.321-0.364-0.515-0.512l-0.044-0.042l-0.01,0.004c-0.439-0.322-0.984-0.514-1.576-0.514h-17.384
		c-1.487,0-2.703,1.209-2.703,2.697v17.695c0,0.482,0.131,0.938,0.358,1.331l-0.063,0.06l0.328,0.325
		c0.107,0.13,0.224,0.245,0.354,0.349l17.951,17.881l-17.624,17.559c-0.781,0.476-1.304,1.326-1.304,2.306v17.723
		c0,1.496,1.216,2.701,2.703,2.701h17.414c0.896,0,1.69-0.433,2.181-1.098l0.007,0.004l17.995-17.918l17.994,17.918l0.009-0.004
		c0.485,0.665,1.282,1.098,2.177,1.098h17.408c1.495,0,2.711-1.205,2.711-2.701V62.391c0-0.974-0.517-1.818-1.286-2.297
		l-17.642-17.571l17.989-17.91c0.101-0.084,0.194-0.18,0.282-0.28l0.363-0.362l-0.063-0.063c0.223-0.391,0.356-0.844,0.356-1.326
		V4.888z M323.241,76.654c-0.007,0-0.012,0-0.015,0c-1.073,0-1.945-0.863-1.95-1.938l-0.045-8.439h-8.858
		c-1.079,0-1.957-0.873-1.957-1.942c0-1.078,0.878-1.946,1.957-1.946h10.802c1.077,0,1.948,0.859,1.953,1.934l0.057,10.38
		C325.188,75.775,324.321,76.65,323.241,76.654z M330.29,69.738c0,0-0.006,0-0.007,0c-1.076,0-1.947-0.862-1.953-1.936l-0.044-8.441
		h-8.857c-1.076,0-1.957-0.875-1.957-1.942c0-1.081,0.881-1.948,1.957-1.948h10.803c1.074,0,1.948,0.86,1.95,1.937l0.057,10.375
		C332.245,68.855,331.372,69.73,330.29,69.738z M345.21,56.512c-7.765,0-14.068-6.268-14.068-14.008
		c0-7.733,6.303-14.011,14.068-14.011c7.77,0,14.072,6.277,14.072,14.011C359.281,50.243,352.979,56.512,345.21,56.512z
		 M367.962,32.449c-0.001,0-0.007,0-0.007,0c-1.075,0-1.95-0.864-1.958-1.935l-0.04-8.443h-8.856c-1.082,0-1.959-0.871-1.959-1.946
		c0-1.073,0.877-1.944,1.959-1.944h10.797c1.076,0,1.952,0.863,1.955,1.936l0.054,10.378
		C369.913,31.569,369.044,32.444,367.962,32.449z M375.018,25.531c-0.002,0-0.003,0-0.009,0c-1.071,0-1.95-0.862-1.953-1.937
		l-0.042-8.441h-8.861c-1.077,0-1.953-0.871-1.953-1.944s0.876-1.946,1.953-1.946h10.803c1.078,0,1.949,0.862,1.954,1.937
		l0.055,10.378C376.966,24.651,376.095,25.528,375.018,25.531z"/>
	<path fill="#020202" d="M351.624,42.503c0,3.529-2.875,6.388-6.418,6.388c-3.537,0-6.411-2.858-6.411-6.388
		c0-3.521,2.873-6.391,6.411-6.391C348.749,36.112,351.624,38.981,351.624,42.503z"/>
</g>
</svg>
